<svg width="16" height="16" viewBox="0 0 16 16" fill="none" xmlns="http://www.w3.org/2000/svg">
<g clip-path="url(#clip0_1319_34874)">
<path d="M6.00391 5.5C6.00391 5.89782 5.84587 6.27936 5.56457 6.56066C5.28326 6.84196 4.90173 7 4.50391 7C4.10608 7 3.72455 6.84196 3.44325 6.56066C3.16194 6.27936 3.00391 5.89782 3.00391 5.5C3.00391 5.10218 3.16194 4.72064 3.44325 4.43934C3.72455 4.15804 4.10608 4 4.50391 4C4.90173 4 5.28326 4.15804 5.56457 4.43934C5.84587 4.72064 6.00391 5.10218 6.00391 5.5Z" fill="black"/>
<path d="M2.00391 1C1.47347 1 0.964765 1.21071 0.589693 1.58579C0.21462 1.96086 0.00390625 2.46957 0.00390625 3V13C0.00390625 13.5304 0.21462 14.0391 0.589693 14.4142C0.964765 14.7893 1.47347 15 2.00391 15H14.0039C14.5343 15 15.043 14.7893 15.4181 14.4142C15.7932 14.0391 16.0039 13.5304 16.0039 13V3C16.0039 2.46957 15.7932 1.96086 15.4181 1.58579C15.043 1.21071 14.5343 1 14.0039 1H2.00391ZM14.0039 2C14.2691 2 14.5235 2.10536 14.711 2.29289C14.8985 2.48043 15.0039 2.73478 15.0039 3V9.5L11.2269 7.553C11.1331 7.50602 11.027 7.48973 10.9234 7.50642C10.8199 7.52311 10.7242 7.57194 10.6499 7.646L6.93991 11.356L4.27991 9.584C4.18387 9.52006 4.06867 9.4913 3.95384 9.5026C3.83902 9.5139 3.73164 9.56456 3.64991 9.646L1.00391 12V3C1.00391 2.73478 1.10926 2.48043 1.2968 2.29289C1.48434 2.10536 1.73869 2 2.00391 2H14.0039Z" fill="black"/>
</g>
<defs>
<clipPath id="clip0_1319_34874">
<rect width="16" height="16" fill="white"/>
</clipPath>
</defs>
</svg>
